<svg id="Layer_1" enable-background="new 0 0 512 512" height="512" viewBox="0 0 512 512" width="512" xmlns="http://www.w3.org/2000/svg"><g><path d="m81 351c0-39 18.949-70.426 70-110 32.396-25.112 58-74 42-132 0 0-9-30-27-62-4.548-8.086-5.992-13.807-5.224-17.845-10.305-5.113-21.062-9.155-29.338-9.155-24.195 0-38.892 26.673-25.965 47.126l18.29 30.598c21.03 35.183 12.088 80.286-20.307 105.398-51.052 39.574-83.456 95.581-83.456 147.878 0 94.441 45.661 141 176 141h61c-130.339 0-176-46.559-176-141z" fill="#cee1f2"/><path d="m316 512h-120c-69.134 0-118.132-13.024-149.796-39.817-31.091-26.308-46.204-65.947-46.204-121.183 0-29.428 8.982-60.536 25.977-89.962 16.406-28.406 39.896-54.619 67.931-75.804 24.345-18.397 30.376-53.179 13.731-79.185l-17.917-27.994c-9.995-15.618-10.674-35.423-1.772-51.688 8.901-16.263 25.947-26.367 44.488-26.367 13.348 0 29.646 6.287 49.828 19.22 5.674 3.636 12.854 3.719 18.742.213 21.963-13.076 39.624-19.433 53.992-19.433 14.479 0 31.854 6.403 53.119 19.575 5.726 3.548 12.838 3.637 18.559.233 22.41-13.329 40.036-19.808 53.885-19.808 18.481 0 35.502 10.055 44.42 26.242 8.874 16.105 8.332 35.748-1.399 51.333l-18.178 30.411c-15.694 26.256-9.077 60.361 15.393 79.329 27.285 21.15 50.11 47.117 66.008 75.094 16.481 29.005 25.193 59.639 25.193 88.591 0 55.236-15.113 94.875-46.204 121.183-31.664 26.793-80.663 39.817-149.796 39.817zm-183.562-472c-5.731 0-8.482 3.896-9.399 5.571s-2.716 6.093.374 10.921l17.916 27.993c13.483 21.066 18.561 46.231 14.295 70.861-4.29 24.771-17.644 46.719-37.601 61.801-48.127 36.368-78.023 87.658-78.023 133.853 0 43.347 10.182 72.15 32.041 90.647 24.138 20.425 64.686 30.353 123.959 30.353h120c59.273 0 99.82-9.928 123.958-30.353 21.86-18.497 32.042-47.3 32.042-90.647 0-45.265-29.01-95.872-75.708-132.071-40.439-31.348-51.281-87.866-25.221-131.466l18.29-30.599c.085-.142.172-.283.261-.423 3.052-4.831 1.245-9.229.327-10.896-.919-1.668-3.673-5.545-9.386-5.545-4.421 0-15.831 3.715-33.437 14.187-18.596 11.062-41.612 10.828-60.072-.608-16.162-10.012-27.156-13.579-32.054-13.579-5.002 0-16.437 3.626-33.529 13.803-18.986 11.303-42.279 10.956-60.788-.905-19.562-12.536-27.414-12.898-28.245-12.898zm13.331 263.9c6.386-9.823 16.434-19.045 27.072-28.808 28.585-26.234 64.159-58.882 64.159-130.092 0-.552-.025-13.694-2.232-28.041-1.68-10.917-11.886-18.403-22.809-16.727-10.917 1.68-18.406 11.892-16.727 22.809 1.727 11.22 1.768 21.873 1.768 21.959 0 53.628-24.872 76.455-51.205 100.621-12.005 11.017-24.419 22.41-33.563 36.479-6.021 9.261-3.393 21.649 5.869 27.669 3.366 2.188 7.145 3.233 10.881 3.233 6.542 0 12.956-3.207 16.787-9.102z" fill="#0023c4"/><path d="m383.019 313.002c-6.544 0-12.955-3.207-16.787-9.103-6.386-9.823-16.434-19.045-27.072-28.808-28.586-26.233-64.16-58.881-64.16-130.091 0-.552.025-13.694 2.232-28.041 1.68-10.917 11.895-18.4 22.809-16.727 10.917 1.68 18.406 11.892 16.727 22.809-1.72 11.176-1.768 21.855-1.768 21.959 0 53.628 24.872 76.455 51.205 100.621 12.005 11.017 24.419 22.41 33.563 36.479 6.021 9.261 3.393 21.649-5.869 27.669-3.365 2.188-7.144 3.233-10.88 3.233z" fill="#ff5cf4"/></g></svg>